<svg width="71" height="71" viewBox="0 0 71 71" fill="none" xmlns="http://www.w3.org/2000/svg">
<path d="M35.0844 70.1688C15.7078 70.1688 0 54.4608 0 35.0844C0 15.7078 15.7078 0 35.0844 0C54.4608 0 70.1688 15.7078 70.1688 35.0844C70.1688 54.4608 54.4608 70.1688 35.0844 70.1688ZM30.2494 22.5052C30.0189 22.3515 29.7481 22.2695 29.4709 22.2695C28.6959 22.2695 28.0675 22.8978 28.0675 23.6729V46.496C28.0675 46.7732 28.1496 47.044 28.3033 47.2745C28.7331 47.9194 29.6046 48.0937 30.2494 47.6636L47.3668 36.252C47.5208 36.1492 47.6531 36.017 47.7559 35.8629C48.186 35.2181 48.0116 34.3466 47.3668 33.9168L30.2494 22.5052Z" fill="#505050"/>
</svg>
