<svg width="23" height="24" viewBox="0 0 23 24" fill="none" xmlns="http://www.w3.org/2000/svg">
<g clip-path="url(#clip0_305_1197)">
<path d="M22.9853 12.2247C22.9853 11.2414 22.9071 10.5239 22.7378 9.77979H11.7266V14.2178H18.1899C18.0596 15.3207 17.356 16.9816 15.7922 18.0977L15.7703 18.2463L19.2518 20.9965L19.493 21.021C21.7083 18.9349 22.9853 15.8654 22.9853 12.2247Z" fill="#4285F4"/>
<path d="M11.7269 23.9173C14.8934 23.9173 17.5517 22.8543 19.4934 21.0206L15.7926 18.0973C14.8023 18.8016 13.4731 19.2932 11.7269 19.2932C8.62559 19.2932 5.99335 17.2071 5.05503 14.3237L4.91749 14.3356L1.29734 17.1925L1.25 17.3267C3.17857 21.2332 7.14 23.9173 11.7269 23.9173Z" fill="#34A853"/>
<path d="M5.05597 14.3238C4.80839 13.5797 4.6651 12.7824 4.6651 11.9586C4.6651 11.1347 4.80839 10.3375 5.04295 9.59342L5.03639 9.43494L1.37087 6.53223L1.25095 6.59039C0.45609 8.21149 0 10.0319 0 11.9586C0 13.8853 0.45609 15.7056 1.25095 17.3267L5.05597 14.3238Z" fill="#FBBC05"/>
<path d="M11.7269 4.62403C13.9291 4.62403 15.4147 5.59402 16.2617 6.40461L19.5716 3.10928C17.5388 1.1826 14.8934 0 11.7269 0C7.14 0 3.17857 2.68406 1.25 6.59056L5.042 9.59359C5.99335 6.7102 8.62559 4.62403 11.7269 4.62403Z" fill="#EB4335"/>
</g>
<defs>
<clipPath id="clip0_305_1197">
<rect width="23" height="24" fill="white"/>
</clipPath>
</defs>
</svg>
