<svg width="19" height="24" viewBox="0 0 19 24" fill="none" xmlns="http://www.w3.org/2000/svg">
<path d="M9.6734 7.2221C8.7974 7.2221 7.44138 6.2261 6.01338 6.2621C4.12938 6.2861 2.40138 7.35409 1.42938 9.04609C-0.526622 12.4421 0.925378 17.4581 2.83338 20.2181C3.76938 21.5621 4.87338 23.0741 6.33738 23.0261C7.74138 22.9661 8.2694 22.1141 9.9734 22.1141C11.6654 22.1141 12.1454 23.0261 13.6334 22.9901C15.1454 22.9661 16.1054 21.6221 17.0294 20.2661C18.0974 18.7061 18.5414 17.1941 18.5654 17.1101C18.5294 17.0981 15.6254 15.9821 15.5894 12.6221C15.5654 9.81409 17.8814 8.4701 17.9894 8.4101C16.6694 6.4781 14.6414 6.2621 13.9334 6.2141C12.0854 6.0701 10.5374 7.2221 9.6734 7.2221ZM12.7934 4.3901C13.5734 3.4541 14.0894 2.1461 13.9454 0.850098C12.8294 0.898098 11.4854 1.5941 10.6814 2.5301C9.9614 3.3581 9.3374 4.6901 9.5054 5.9621C10.7414 6.0581 12.0134 5.3261 12.7934 4.3901Z" fill="black"/>
</svg>
