<?xml version="1.0" encoding="UTF-8" standalone="no" ?>
<!DOCTYPE svg PUBLIC "-//W3C//DTD SVG 1.1//EN" "http://www.w3.org/Graphics/SVG/1.1/DTD/svg11.dtd">
<svg xmlns="http://www.w3.org/2000/svg" xmlns:xlink="http://www.w3.org/1999/xlink" version="1.1" width="500" height="500" viewBox="0 0 500 500" xml:space="preserve">
<desc>Created with Fabric.js 3.6.3</desc>
<defs>
</defs>
<rect x="0" y="0" width="100%" height="100%" fill="#ffff"></rect>
<g transform="matrix(0.40651211592239817 0 0 0.40651211592239817 108.38179999999998 268.7464)"  >
<g style=""   >
		<g transform="matrix(1 0 0 1 -128.74357277923866 26.167675070774635)"  >
<path style="stroke: none; stroke-width: 1; stroke-dasharray: none; stroke-linecap: butt; stroke-dashoffset: 0; stroke-linejoin: miter; stroke-miterlimit: 4; fill: rgb(255,157,0); fill-rule: nonzero; opacity: 1;"  transform=" translate(-373.68642722076135, -537.8076750707746)" d="M 459.87 554.46 l -74.39 74.13 a 57.75 57.75 0 0 1 -81.23 0 h 0 a 57.26 57.26 0 0 1 0 -80.93 l 98.75 -99 l 4.4 -4.39 l 14 -13.94" stroke-linecap="round" />
</g>
		<g transform="matrix(1 0 0 1 78.69889337529963 -26.66619108630391)"  >
<path style="stroke: none; stroke-width: 1; stroke-dasharray: none; stroke-linecap: butt; stroke-dashoffset: 0; stroke-linejoin: miter; stroke-miterlimit: 4; fill: rgb(72,202,237); fill-rule: nonzero; opacity: 1;"  transform=" translate(-581.1288933752996, -484.9738089136961)" d="M 445 569.45 c 0.31 -0.41 0.63 -0.83 1 -1.24 l 75.85 -75.58 a 57.33 57.33 0 0 0 4.42 -5 l 93.33 -93 a 57.23 57.23 0 0 1 81.08 80.79 l -85.93 85.61 l -7.61 7.61 l -3.68 3.68 l -16.09 16.06 l -3.66 3.66" stroke-linecap="round" />
</g>
		<g transform="matrix(1 0 0 1 -13.959155670942266 -20.16005085676551)"  >
<path style="stroke: none; stroke-width: 1; stroke-dasharray: none; stroke-linecap: butt; stroke-dashoffset: 0; stroke-linejoin: miter; stroke-miterlimit: 4; fill: rgb(247,60,92); fill-rule: nonzero; opacity: 1;"  transform=" translate(-488.47084432905774, -491.4799491432345)" d="M 505.63 391.48 a 117.15 117.15 0 0 0 -82.83 200 L 588.47 425.79 A 116.79 116.79 0 0 0 505.63 391.48 Z" stroke-linecap="round" />
</g>
		<g transform="matrix(1 0 0 1 20.036916773685164 13.816916773685193)"  >
<path style="stroke: none; stroke-width: 1; stroke-dasharray: none; stroke-linecap: butt; stroke-dashoffset: 0; stroke-linejoin: miter; stroke-miterlimit: 4; fill: rgb(42,139,234); fill-rule: nonzero; opacity: 1;"  transform=" translate(-522.4669167736852, -525.4569167736852)" d="M 588.47 425.79 L 422.8 591.46 A 117.15 117.15 0 0 0 588.47 425.79 Z" stroke-linecap="round" />
</g>
</g>
</g>
<g transform="matrix(1 0 0 1 340.8055550242342 256.21137441973224)" style=""  ><path fill="#69226F" opacity="1" d="M-129.14 4.18L-129.14 4.18L-119.66 4.18Q-119.56 5.42-118.83 5.93Q-118.10 6.45-116.60 6.45L-116.60 6.45Q-113.65 6.45-113.65 5.11L-113.65 5.11Q-113.65 3.91-116.21 2.99L-116.21 2.99Q-116.60 2.86-117.29 2.60Q-117.98 2.34-119.45 1.84L-119.45 1.84Q-121.61 1.10-122.97 0.53Q-124.33-0.04-125.61-0.93Q-126.89-1.83-127.67-3.17Q-128.45-4.51-128.45-6.30L-128.45-6.30Q-128.45-9.98-125.43-12.26Q-122.41-14.54-115.06-14.54L-115.06-14.54Q-111.50-14.54-109.05-13.85Q-106.60-13.17-105.20-11.45Q-103.80-9.72-103.65-6.73L-103.65-6.73L-113.05-6.73Q-113.05-8.13-113.72-8.60Q-114.40-9.06-115.85-9.06L-115.85-9.06Q-118.30-9.06-118.30-7.48L-118.30-7.48Q-118.30-6.81-117.89-6.40Q-117.48-5.98-116.85-5.75Q-116.21-5.53-114.95-5.21L-114.95-5.21Q-111.27-4.29-108.90-3.37Q-106.53-2.45-105.03-0.85Q-103.54 0.75-103.54 3.24L-103.54 3.24Q-103.54 6.20-105.06 8.01Q-106.59 9.81-108.81 10.65Q-111.02 11.49-112.97 11.71Q-114.91 11.92-116.64 11.92L-116.64 11.92Q-119.73 11.92-122.37 11.46Q-125.01 11.00-127.05 9.29Q-129.09 7.57-129.14 4.18Z"/><path fill="#69226F" opacity="1" d="M-95.94-13.71L-95.94-17.49L-86.18-17.49L-86.18-0.06L-82.19-3.05Q-81.83-3.34-81.83-3.56L-81.83-3.56Q-81.83-3.99-82.84-3.99L-82.84-3.99L-83.41-3.99L-83.41-7.77L-71.61-7.77L-71.61-3.99L-72.08-3.99Q-73.32-3.99-74.89-3.18Q-76.46-2.36-77.51-1.40L-77.51-1.40L-73.66 5.16Q-72.88 6.48-72.25 7.01Q-71.62 7.53-70.46 7.53L-70.46 7.53L-69.77 7.53L-69.77 11.31L-82.98 11.31L-82.98 7.53L-82.19 7.53Q-81.11 7.53-81.11 7.10L-81.11 7.10Q-81.11 6.85-81.47 6.31L-81.47 6.31L-83.48 3.06L-86.18 5.08L-86.18 6.38Q-86.18 6.92-85.97 7.23Q-85.76 7.53-85.07 7.53L-85.07 7.53L-84.71 7.53L-84.71 11.31L-95.94 11.31L-95.94 7.53L-95.15 7.53Q-94.38 7.53-94.10 7.27Q-93.82 7.02-93.82 6.38L-93.82 6.38L-93.82-12.99Q-93.82-13.71-95.15-13.71L-95.15-13.71L-95.94-13.71Z"/><path fill="#69226F" opacity="1" d="M-50.97 11.31L-62.60 11.31L-62.60 7.53L-61.84 7.53Q-61.03 7.53-60.77 7.28Q-60.52 7.03-60.52 6.38L-60.52 6.38L-60.52-2.84Q-60.52-3.60-60.88-3.79Q-61.24-3.99-61.84-3.99L-61.84-3.99L-62.60-3.99L-62.60-7.77L-50.97-7.77L-50.97-3.99L-51.55-3.99Q-52.19-3.99-52.54-3.79Q-52.89-3.60-52.89-2.84L-52.89-2.84L-52.89 6.38Q-52.89 7.02-52.60 7.27Q-52.32 7.53-51.55 7.53L-51.55 7.53L-50.97 7.53L-50.97 11.31ZM-60.23-13.99L-60.23-13.99Q-60.23-15.58-59.14-16.57Q-58.05-17.56-56.67-17.56L-56.67-17.56Q-55.80-17.56-54.96-17.13Q-54.13-16.69-53.62-15.88Q-53.10-15.06-53.10-13.99L-53.10-13.99Q-53.10-12.61-54.10-11.52Q-55.10-10.44-56.67-10.44L-56.67-10.44Q-57.73-10.44-58.54-10.95Q-59.35-11.46-59.79-12.29Q-60.23-13.12-60.23-13.99Z"/><path fill="#69226F" opacity="1" d="M-42.94-17.49L-33.19-17.49L-33.19 6.38Q-33.19 7.03-32.93 7.28Q-32.67 7.53-31.86 7.53L-31.86 7.53L-31.28 7.53L-31.28 11.31L-42.94 11.31L-42.94 7.53L-42.15 7.53Q-41.39 7.53-41.11 7.27Q-40.82 7.02-40.82 6.38L-40.82 6.38L-40.82-12.84Q-40.82-13.71-42.15-13.71L-42.15-13.71L-42.94-13.71L-42.94-17.49Z"/><path fill="#69226F" opacity="1" d="M-23.25-17.49L-13.50-17.49L-13.50 6.38Q-13.50 7.03-13.24 7.28Q-12.98 7.53-12.17 7.53L-12.17 7.53L-11.59 7.53L-11.59 11.31L-23.25 11.31L-23.25 7.53L-22.46 7.53Q-21.70 7.53-21.41 7.27Q-21.13 7.02-21.13 6.38L-21.13 6.38L-21.13-12.84Q-21.13-13.71-22.46-13.71L-22.46-13.71L-23.25-13.71L-23.25-17.49Z"/><path fill="#69226F" opacity="1" d="M9.25 11.31L-4.00 11.31L-4.00 6.70L-2.99 6.70Q-1.85 6.70-1.57 6.44Q-1.29 6.19-1.29 5.59L-1.29 5.59L-1.29-7.84Q-1.29-8.51-1.54-8.90Q-1.79-9.28-2.77-9.28L-2.77-9.28L-4.00-9.28L-4.00-13.89L9.61-13.89L9.61-9.28L9.03-9.28Q8.29-9.28 7.90-9.03Q7.52-8.77 7.52-8.10L7.52-8.10L7.52-3.99L12.24-8.31Q12.81-8.77 12.81-9.06L12.81-9.06Q12.81-9.28 11.92-9.28L11.92-9.28L11.52-9.28L11.52-13.89L24.55-13.89L24.59-9.28L23.76-9.28Q21.92-9.28 20.06-8.19Q18.21-7.10 16.85-5.40L16.85-5.40L22.21 3.32Q24.21 6.61 26.17 6.70L26.17 6.70L26.17 11.31L11.77 11.31L11.77 6.70L12.42 6.70Q13.36 6.70 13.36 5.80L13.36 5.80Q13.36 5.55 12.64 4.32L12.64 4.32L10.33 0.58L7.52 3.32L7.52 5.19Q7.52 6.70 8.96 6.70L8.96 6.70L9.25 6.70L9.25 11.31Z"/><path fill="#69226F" opacity="1" d="M32.07-3.99L32.07-7.77L44.46-7.77L44.46-3.99L43.05-3.99Q42.30-3.99 42.30-3.67L42.30-3.67Q42.30-3.55 42.41-3.38L42.41-3.38L44.78 2.13L45.07 2.13L49.61-7.77L53.10-7.77L58.03 1.84L58.32 1.84L59.86-3.05Q60.05-3.63 60.05-3.84L60.05-3.84Q60.05-3.99 59.04-3.99L59.04-3.99L58.25-3.99L58.25-7.77L68.22-7.77L68.22-3.99L67.50-3.99Q66.39-3.99 66.03-3.51Q65.67-3.03 65.20-1.61L65.20-1.61L60.98 11.31L54.47 11.31L50.90 4.36L50.50 4.36L47.30 11.31L40.90 11.31L35.10-2.26Q34.70-3.18 34.35-3.59Q33.99-3.99 32.98-3.99L32.98-3.99L32.07-3.99Z"/><path fill="#69226F" opacity="1" d="M86.19 11.31L74.56 11.31L74.56 7.53L75.32 7.53Q76.13 7.53 76.39 7.28Q76.65 7.03 76.65 6.38L76.65 6.38L76.65-2.84Q76.65-3.60 76.28-3.79Q75.92-3.99 75.32-3.99L75.32-3.99L74.56-3.99L74.56-7.77L86.19-7.77L86.19-3.99L85.61-3.99Q84.97-3.99 84.62-3.79Q84.28-3.60 84.28-2.84L84.28-2.84L84.28 6.38Q84.28 7.02 84.56 7.27Q84.85 7.53 85.61 7.53L85.61 7.53L86.19 7.53L86.19 11.31ZM76.94-13.99L76.94-13.99Q76.94-15.58 78.02-16.57Q79.11-17.56 80.50-17.56L80.50-17.56Q81.37-17.56 82.20-17.13Q83.03-16.69 83.55-15.88Q84.06-15.06 84.06-13.99L84.06-13.99Q84.06-12.61 83.06-11.52Q82.06-10.44 80.50-10.44L80.50-10.44Q79.43-10.44 78.62-10.95Q77.82-11.46 77.38-12.29Q76.94-13.12 76.94-13.99Z"/><path fill="#69226F" opacity="1" d="M95.22-0.28L95.22-7.77L114.05-7.77L114.05-2.84L103.50 6.63L108.72 6.63Q109.18 6.63 109.45 6.44Q109.71 6.24 109.91 5.40L109.91 5.40L110.27 3.82L114.05 3.82L114.05 11.31L94.61 11.31L94.61 6.34L105.01-3.09L101.30-3.09Q100.34-3.09 100.01-3.00Q99.68-2.90 99.56-2.62Q99.44-2.33 99.26-1.44L99.26-1.44L99.00-0.28L95.22-0.28Z"/></g><g transform="matrix(1 0 0 1 335.8055550242342 287.7768572211416)" style=""  ><path fill="#000000" opacity="1" d="M-116.29-9.77L-116.36-9.77C-116.76-9.77-117.09-9.44-117.09-9.04L-117.09-2.39C-117.09-2.28-117.18-2.16-117.30-2.16L-126.07-2.16C-126.18-2.16-126.28-2.28-126.28-2.39L-126.28-9.04C-126.28-9.44-126.61-9.77-127.01-9.77L-127.08-9.77C-127.48-9.77-127.80-9.44-127.80-9.04L-127.80 6.65C-127.80 7.05-127.48 7.38-127.08 7.38L-127.01 7.38C-126.61 7.38-126.28 7.05-126.28 6.65L-126.28-0.42C-126.28-0.56-126.18-0.65-126.07-0.65L-117.30-0.65C-117.18-0.65-117.09-0.56-117.09-0.42L-117.09 6.65C-117.09 7.05-116.76 7.38-116.36 7.38L-116.29 7.38C-115.89 7.38-115.56 7.05-115.56 6.65L-115.56-9.04C-115.56-9.44-115.89-9.77-116.29-9.77Z"/><path fill="#000000" opacity="1" d="M-107.71-4.16C-110.98-4.16-113.63-1.50-113.63 1.77C-113.63 5.03-110.98 7.69-107.71 7.69C-104.42 7.69-101.77 5.03-101.77 1.77C-101.77-1.50-104.42-4.16-107.71-4.16ZM-107.71 6.28C-110.13 6.28-112.13 4.21-112.13 1.77C-112.13-0.68-110.13-2.75-107.71-2.75C-105.27-2.75-103.29-0.68-103.29 1.77C-103.29 4.21-105.27 6.28-107.71 6.28Z"/><path fill="#000000" opacity="1" d="M-86.21-3.87C-86.26-3.87-86.33-3.87-86.33-3.87C-86.91-3.87-87.10-3.78-87.36-3.22C-87.36-3.22-90.28 3.55-90.49 4.05C-90.56 4.21-90.72 4.61-90.75 4.70C-90.84 5.06-90.89 5.03-90.98 4.70C-91.03 4.59-91.19 4.14-91.26 4.00C-91.38 3.79-91.94 2.45-92.58 0.97C-92.65 0.85-92.63 0.80-92.55 0.66C-91.66-1.29-90.89-2.96-90.82-3.15C-90.60-3.57-90.98-3.87-91.33-3.87C-91.38-3.87-91.47-3.87-91.47-3.87C-92.06-3.87-92.25-3.78-92.51-3.22C-92.51-3.22-92.84-2.39-93.31-1.29C-93.40-1.08-93.47-1.08-93.57-1.29C-94.04-2.39-94.36-3.22-94.36-3.22C-94.58-3.69-94.76-3.87-95.40-3.87L-95.52-3.87C-96.06-3.87-96.20-3.47-96.01-3.05C-95.96-2.93-95.21-1.31-94.32 0.61C-94.22 0.85-94.22 0.80-94.32 1.01C-94.93 2.49-95.52 3.83-95.61 4.05C-95.70 4.21-95.84 4.61-95.87 4.70C-95.96 5.06-96.03 5.03-96.13 4.70C-96.15 4.59-96.31 4.14-96.41 4.00C-96.64 3.53-99.49-3.22-99.49-3.22C-99.70-3.69-99.89-3.87-100.52-3.87L-100.66-3.87C-101.18-3.87-101.34-3.47-101.16-3.05C-100.99-2.70-96.31 7.41-96.31 7.41C-96.15 7.78-95.87 7.78-95.68 7.41C-95.68 7.41-94.69 5.20-93.57 2.80C-93.45 2.52-93.42 2.54-93.31 2.78C-92.20 5.17-91.19 7.41-91.19 7.41C-91.00 7.78-90.72 7.78-90.56 7.41C-90.56 7.41-85.88-2.70-85.67-3.15C-85.48-3.57-85.86-3.87-86.21-3.87Z"/><path fill="#000000" opacity="1" d=""/><path fill="#000000" opacity="1" d="M-63.79-4.16C-65.27-4.16-66.23-3.55-66.80-2.68C-67.03-2.28-67.08-2.30-67.34-2.70C-68.19-3.94-69.67-4.16-70.51-4.16C-71.45-4.16-72.06-3.83-72.86-2.89C-72.93-2.82-73.03-2.84-73.03-2.96C-73.03-3.00-73.03-3.26-73.03-3.31C-73.03-3.64-73.40-3.87-73.75-3.87L-73.83-3.87C-74.22-3.87-74.55-3.55-74.55-3.15L-74.55 6.68C-74.55 7.08-74.22 7.38-73.83 7.38L-73.75 7.38C-73.36 7.38-73.03 7.08-73.03 6.68C-73.03 6.68-73.03 0.47-73.03 0.19C-73.03-1.57-72.30-2.75-70.51-2.75C-69.74-2.75-67.83-2.14-67.81 0.21L-67.81 6.68C-67.81 7.08-67.48 7.38-67.08 7.38L-67.01 7.38C-66.61 7.38-66.28 7.08-66.28 6.68C-66.28 6.68-66.28 0.47-66.28 0.19C-66.28-1.57-65.55-2.75-63.79-2.75C-62.99-2.75-61.06-2.14-61.06 0.26L-61.06 6.68C-61.06 7.08-60.74 7.38-60.34 7.38L-60.29 7.38C-59.89 7.38-59.56 7.08-59.56 6.68L-59.56 0.17C-59.56-3.55-62.47-4.16-63.79-4.16Z"/><path fill="#000000" opacity="1" d="M-48.56-3.87L-48.61-3.87C-49.01-3.87-49.34-3.55-49.34-3.15L-49.34 2.89C-49.34 5.22-50.87 6.28-52.51 6.28C-54.13 6.28-55.68 5.22-55.68 2.89L-55.68-3.15C-55.68-3.55-56.01-3.87-56.41-3.87L-56.48-3.87C-56.88-3.87-57.21-3.55-57.21-3.15L-57.21 2.99C-57.21 6.63-54.65 7.69-52.51 7.69C-50.37 7.69-47.83 6.63-47.83 2.99L-47.83-3.15C-47.83-3.55-48.16-3.87-48.56-3.87Z"/><path fill="#000000" opacity="1" d="M-36.34 4.33C-37.14 5.46-38.43 6.28-39.91 6.28C-42.36 6.28-44.33 4.19-44.33 1.74C-44.33-0.70-42.36-2.75-39.91-2.75C-38.53-2.75-37.31-2.04-36.48-1.03C-36.11-0.56-35.97-0.73-35.97-1.08C-35.97-1.24-35.97-1.97-35.97-2.37C-35.97-2.61-36.06-2.75-36.15-2.84C-37.19-3.69-38.50-4.16-39.91-4.16C-43.20-4.16-45.84-1.52-45.84 1.74C-45.84 5.01-43.20 7.69-39.91 7.69C-38.50 7.69-37.19 7.17-36.18 6.35C-36.04 6.23-35.97 6.09-35.97 5.85C-35.97 5.43-35.97 4.68-35.97 4.40C-35.97 4.00-36.20 4.14-36.34 4.33Z"/><path fill="#000000" opacity="1" d="M-29.81-4.16C-30.98-4.16-31.88-3.59-32.37-2.89C-32.44-2.77-32.63-2.61-32.63-2.98C-32.63-3.17-32.63-9.04-32.63-9.04C-32.63-9.44-32.94-9.77-33.33-9.77L-33.43-9.77C-33.83-9.77-34.16-9.44-34.16-9.04L-34.16 6.32L-34.16 6.65C-34.16 7.05-33.83 7.38-33.43 7.38L-33.33 7.38C-32.94 7.38-32.63 7.05-32.63 6.65C-32.63 6.65-32.63 0.14-32.63-0.07C-32.63-2.04-30.54-2.75-29.81-2.75C-27.37-2.75-26.68-0.54-26.68 0.26L-26.66 6.65C-26.66 7.05-26.33 7.38-25.93 7.38L-25.86 7.38C-25.46 7.38-25.13 7.05-25.13 6.65L-25.13 6.16L-25.13 0.17C-25.13-1.52-26.50-4.16-29.81-4.16Z"/><path fill="#000000" opacity="1" d=""/><path fill="#000000" opacity="1" d="M-2.29-9.07C-2.29-9.44-2.62-9.77-3.00-9.77L-3.09-9.77C-3.49-9.77-3.82-9.44-3.82-9.07C-3.82-9.07-3.82-3.24-3.82-2.32C-3.82-2.14-4.01-2.14-4.08-2.25C-5.21-3.62-6.54-4.16-8.12-4.16C-9.74-4.16-11.15-3.62-12.30-2.44C-13.48-1.29-14.04 0.10-14.04 1.74C-14.04 3.39-13.48 4.77-12.30 5.95C-11.15 7.10-9.74 7.69-8.12 7.69C-6.54 7.69-5.06 6.94-3.98 5.69C-3.87 5.55-3.82 5.71-3.82 5.78C-3.82 5.97-3.82 6.68-3.82 6.68C-3.82 7.08-3.49 7.38-3.09 7.38L-3.00 7.38C-2.62 7.38-2.29 7.08-2.29 6.68ZM-3.70 1.74C-3.70 4.19-5.68 6.28-8.12 6.28C-10.56 6.28-12.54 4.19-12.54 1.74C-12.54-0.70-10.56-2.75-8.12-2.75C-5.68-2.75-3.70-0.70-3.70 1.74Z"/><path fill="#000000" opacity="1" d="M5.56-4.16C2.29-4.16-0.36-1.50-0.36 1.77C-0.36 5.03 2.29 7.69 5.56 7.69C8.85 7.69 11.50 5.03 11.50 1.77C11.50-1.50 8.85-4.16 5.56-4.16ZM5.56 6.28C3.14 6.28 1.14 4.21 1.14 1.77C1.14-0.68 3.14-2.75 5.56-2.75C8.00-2.75 9.98-0.68 9.98 1.77C9.98 4.21 8.00 6.28 5.56 6.28Z"/><path fill="#000000" opacity="1" d=""/><path fill="#000000" opacity="1" d="M25.58 9.29L31.55-3.38C31.67-3.66 31.53-3.87 31.22-3.87L30.61-3.87C30.30-3.87 29.95-3.66 29.81-3.38L26.97 3.34C26.71 3.90 26.78 3.93 26.50 3.34L23.68-3.38C23.54-3.66 23.18-3.87 22.88-3.87L22.27-3.87C21.96-3.87 21.82-3.66 21.94-3.38L25.65 4.54C25.86 5.01 25.86 5.08 25.65 5.55L23.86 9.29C23.72 9.57 23.86 9.80 24.17 9.80L24.78 9.80C25.11 9.80 25.46 9.57 25.58 9.29Z"/><path fill="#000000" opacity="1" d="M37.80-4.16C34.53-4.16 31.88-1.50 31.88 1.77C31.88 5.03 34.53 7.69 37.80 7.69C41.09 7.69 43.75 5.03 43.75 1.77C43.75-1.50 41.09-4.16 37.80-4.16ZM37.80 6.28C35.38 6.28 33.38 4.21 33.38 1.77C33.38-0.68 35.38-2.75 37.80-2.75C40.24-2.75 42.22-0.68 42.22 1.77C42.22 4.21 40.24 6.28 37.80 6.28Z"/><path fill="#000000" opacity="1" d="M54.32-3.87L54.27-3.87C53.87-3.87 53.54-3.55 53.54-3.15L53.54 2.89C53.54 5.22 52.02 6.28 50.37 6.28C48.75 6.28 47.20 5.22 47.20 2.89L47.20-3.15C47.20-3.55 46.87-3.87 46.47-3.87L46.40-3.87C46.00-3.87 45.67-3.55 45.67-3.15L45.67 2.99C45.67 6.63 48.23 7.69 50.37 7.69C52.51 7.69 55.05 6.63 55.05 2.99L55.05-3.15C55.05-3.55 54.72-3.87 54.32-3.87Z"/><path fill="#000000" opacity="1" d=""/><path fill="#000000" opacity="1" d="M74.93 6.18C74.93 6.18 71.36 1.34 71.12 1.04C70.86 0.71 71.05 0.57 71.29 0.36C71.50 0.14 74.22-2.30 74.22-2.30C74.53-2.58 74.55-3.03 74.30-3.33L74.25-3.38C73.97-3.66 73.52-3.71 73.21-3.43C73.21-3.43 69.05 0.45 68.73 0.78C68.44 1.04 68.33 0.92 68.33 0.52C68.33 0.12 68.33-9.04 68.33-9.04C68.33-9.44 68.00-9.77 67.60-9.77L67.53-9.77C67.13-9.77 66.80-9.44 66.80-9.04L66.80 6.65C66.80 7.05 67.13 7.38 67.53 7.38L67.60 7.38C68.00 7.38 68.33 7.05 68.33 6.65C68.33 6.65 68.33 3.62 68.33 3.39C68.33 3.15 68.44 2.92 68.61 2.78C68.91 2.49 69.36 2.07 69.50 1.95C69.69 1.79 69.78 1.79 69.97 2.02C70.14 2.26 73.71 7.08 73.71 7.08C73.94 7.41 74.41 7.48 74.72 7.24L74.79 7.19C75.09 6.96 75.16 6.49 74.93 6.18Z"/><path fill="#000000" opacity="1" d="M81.32-4.16C80.41-4.16 79.11-3.92 78.31-3.03C78.24-2.96 78.13-2.98 78.13-3.10C78.13-3.15 78.13-3.10 78.13-3.17C78.13-3.62 77.77-3.87 77.42-3.87L77.33-3.87C76.93-3.87 76.60-3.57 76.60-3.17L76.62 6.65C76.62 7.05 76.95 7.38 77.35 7.38L77.42 7.38C77.82 7.38 78.15 7.05 78.15 6.65C78.15 6.65 78.15 0.45 78.15 0.17C78.15-1.78 79.18-2.75 81.32-2.75C82.94-2.75 84.71-1.74 84.71 0.59L84.71 6.65C84.71 7.05 85.03 7.38 85.43 7.38L85.48 7.38C85.88 7.38 86.21 7.05 86.21 6.65L86.21 0.50C86.21-3.15 83.46-4.16 81.32-4.16Z"/><path fill="#000000" opacity="1" d="M94.06-4.16C90.79-4.16 88.14-1.50 88.14 1.77C88.14 5.03 90.79 7.69 94.06 7.69C97.35 7.69 100.00 5.03 100.00 1.77C100.00-1.50 97.35-4.16 94.06-4.16ZM94.06 6.28C91.64 6.28 89.64 4.21 89.64 1.77C89.64-0.68 91.64-2.75 94.06-2.75C96.50-2.75 98.48-0.68 98.48 1.77C98.48 4.21 96.50 6.28 94.06 6.28Z"/><path fill="#000000" opacity="1" d="M115.56-3.87C115.51-3.87 115.44-3.87 115.44-3.87C114.86-3.87 114.67-3.78 114.41-3.22C114.41-3.22 111.50 3.55 111.28 4.05C111.21 4.21 111.05 4.61 111.03 4.70C110.93 5.06 110.88 5.03 110.79 4.70C110.74 4.59 110.58 4.14 110.51 4.00C110.39 3.79 109.83 2.45 109.19 0.97C109.12 0.85 109.15 0.80 109.22 0.66C110.11-1.29 110.88-2.96 110.96-3.15C111.17-3.57 110.79-3.87 110.44-3.87C110.39-3.87 110.30-3.87 110.30-3.87C109.71-3.87 109.52-3.78 109.26-3.22C109.26-3.22 108.93-2.39 108.46-1.29C108.37-1.08 108.30-1.08 108.21-1.29C107.74-2.39 107.41-3.22 107.41-3.22C107.20-3.69 107.01-3.87 106.37-3.87L106.26-3.87C105.71-3.87 105.57-3.47 105.76-3.05C105.81-2.93 106.56-1.31 107.45 0.61C107.55 0.85 107.55 0.80 107.45 1.01C106.84 2.49 106.26 3.83 106.16 4.05C106.07 4.21 105.93 4.61 105.90 4.70C105.81 5.06 105.74 5.03 105.64 4.70C105.62 4.59 105.46 4.14 105.36 4.00C105.13 3.53 102.28-3.22 102.28-3.22C102.07-3.69 101.88-3.87 101.25-3.87L101.11-3.87C100.59-3.87 100.43-3.47 100.62-3.05C100.78-2.70 105.46 7.41 105.46 7.41C105.62 7.78 105.90 7.78 106.09 7.41C106.09 7.41 107.08 5.20 108.21 2.80C108.32 2.52 108.35 2.54 108.46 2.78C109.57 5.17 110.58 7.41 110.58 7.41C110.77 7.78 111.05 7.78 111.21 7.41C111.21 7.41 115.89-2.70 116.10-3.15C116.29-3.57 115.91-3.87 115.56-3.87Z"/><path fill="#000000" opacity="1" d="M122.49 4.80L122.40 4.80C121.62 4.80 121.01 5.38 121.01 6.16L121.01 6.28C121.01 7.05 121.62 7.69 122.40 7.69L122.49 7.69C123.27 7.69 123.90 7.05 123.90 6.28L123.90 6.16C123.90 5.38 123.27 4.80 122.49 4.80ZM122.78-10.05C120.21-10.05 117.46-8.20 117.46-4.67C117.46-4.30 117.79-3.94 118.19-3.94L118.26-3.94C118.66-3.94 118.97-4.27 118.97-4.67C118.97-7.45 121.32-8.67 122.78-8.67C125.45-8.67 126.68-6.74 126.68-5.10C126.68-1.08 121.67-2.86 121.67 2.71C121.67 3.08 121.98 3.46 122.38 3.46L122.54 3.46C122.94 3.46 123.27 3.11 123.27 2.71C123.27-2.25 128.16-0.44 128.16-5.10C128.16-7.56 126.28-10.05 122.78-10.05Z"/></g></svg>